<svg width="24" height="24" viewBox="0 0 24 24" fill="none" xmlns="http://www.w3.org/2000/svg">
<rect x="0.5" y="0.5" width="23" height="23" rx="11.5" fill="white" stroke="#F0F2F1"/>
<path d="M16.2727 10.5232C16.2727 10.5232 15.956 14.4519 15.7722 16.1069C15.6847 16.8973 15.1965 17.3604 14.3967 17.375C12.8748 17.4024 11.3511 17.4042 9.8298 17.3721C9.06038 17.3564 8.5803 16.8874 8.49455 16.1109C8.30963 14.4414 7.99463 10.5232 7.99463 10.5232" stroke="#939393" stroke-linecap="round" stroke-linejoin="round"/>
<path d="M17.0797 8.63981H7.1875" stroke="#939393" stroke-linecap="round" stroke-linejoin="round"/>
<path d="M15.1736 8.63986C14.7157 8.63986 14.3213 8.31611 14.2315 7.86753L14.0898 7.1582C14.0023 6.83095 13.7059 6.60461 13.3682 6.60461H10.8989C10.5612 6.60461 10.2648 6.83095 10.1773 7.1582L10.0356 7.86753C9.94576 8.31611 9.55142 8.63986 9.09351 8.63986" stroke="#939393" stroke-linecap="round" stroke-linejoin="round"/>
</svg>
